HIERARCHY
ROOT hip
{
  OFFSET 0 0 0
  CHANNELS 6 Xposition Yposition Zposition Zrotation Yrotation Xrotation
  JOINT abdomen
  {
    OFFSET 0 20.6881 -0.73152
    CHANNELS 3 Zrotation Xrotation Yrotation
    JOINT chest
    {
      OFFSET 0 11.7043 -0.48768
      CHANNELS 3 Zrotation Xrotation Yrotation
      JOINT neck
      {
        OFFSET 0 22.1894 -2.19456
        CHANNELS 3 Zrotation Xrotation Yrotation
        JOINT head
        {
          OFFSET -0.24384 7.07133 1.2192
          CHANNELS 3 Zrotation Xrotation Yrotation
          JOINT leftEye
          {
            OFFSET 4.14528 8.04674 8.04672
            CHANNELS 3 Zrotation Xrotation Yrotation
            End Site
            {
              OFFSET 1 0 0
            }
          }
          JOINT rightEye
          {
            OFFSET -3.6576 8.04674 8.04672
            CHANNELS 3 Zrotation Xrotation Yrotation
            End Site
            {
              OFFSET 1 0 0
            }
          }
        }
      }
      JOINT rCollar
      {
        OFFSET -2.68224 19.2634 -4.8768
        CHANNELS 3 Zrotation Xrotation Yrotation
        JOINT rShldr
        {
          OFFSET -8.77824 -1.95073 1.46304
          CHANNELS 3 Zrotation Xrotation Yrotation
          JOINT rForeArm
          {
            OFFSET -28.1742 -1.7115 0.48768
            CHANNELS 3 Zrotation Xrotation Yrotation
            JOINT rHand
            {
              OFFSET -22.5879 0.773209 7.07136
              CHANNELS 3 Zrotation Xrotation Yrotation
              JOINT rThumb1
              {
                OFFSET -1.2192 -0.487915 3.41376
                CHANNELS 3 Zrotation Xrotation Yrotation
                JOINT rThumb2
                {
                  OFFSET -3.37035 -0.52449 3.41376
                  CHANNELS 3 Zrotation Xrotation Yrotation
                  End Site
                  {
                    OFFSET -1.78271 -1.18214 1.43049
                  }
                }
              }
              JOINT rIndex1
              {
                OFFSET -7.75947 0.938293 5.60832
                CHANNELS 3 Zrotation Xrotation Yrotation
                JOINT rIndex2
                {
                  OFFSET -2.54057 -0.884171 1.56538
                  CHANNELS 3 Zrotation Xrotation Yrotation
                  End Site
                  {
                    OFFSET -1.62519 -0.234802 1.16502
                  }
                }
              }
              JOINT rMid1
              {
                OFFSET -8.24714 1.18213 3.41376
                CHANNELS 3 Zrotation Xrotation Yrotation
                JOINT rMid2
                {
                  OFFSET -3.10165 -0.590103 1.0647
                  CHANNELS 3 Zrotation Xrotation Yrotation
                  End Site
                  {
                    OFFSET -2.48547 -0.328903 0.83742
                  }
                }
              }
              JOINT rRing1
              {
                OFFSET -8.82822 0.546677 1.51678
                CHANNELS 3 Zrotation Xrotation Yrotation
                JOINT rRing2
                {
                  OFFSET -2.60934 -0.819778 -0.0198488
                  CHANNELS 3 Zrotation Xrotation Yrotation
                  End Site
                  {
                    OFFSET -2.33842 -0.294052 0.168128
                  }
                }
              }
              JOINT rPinky1
              {
                OFFSET -8.27202 -0.0477905 -0.4584
                CHANNELS 3 Zrotation Xrotation Yrotation
                JOINT rPinky2
                {
                  OFFSET -1.82734 -0.647385 -0.700984
                  CHANNELS 3 Zrotation Xrotation Yrotation
                  End Site
                  {
                    OFFSET -1.69225 -0.51767 -0.607171
                  }
                }
              }
            }
          }
        }
      }
      JOINT lCollar
      {
        OFFSET 2.68224 19.2634 -4.8768
        CHANNELS 3 Zrotation Xrotation Yrotation
        JOINT lShldr
        {
          OFFSET 8.77824 -1.95073 1.46304
          CHANNELS 3 Zrotation Xrotation Yrotation
          JOINT lForeArm
          {
            OFFSET 28.1742 -1.7115 0.48768
            CHANNELS 3 Zrotation Xrotation Yrotation
            JOINT lHand
            {
              OFFSET 22.5879 0.773209 7.07136
              CHANNELS 3 Zrotation Xrotation Yrotation
              JOINT lThumb1
              {
                OFFSET 1.2192 -0.487915 3.41376
                CHANNELS 3 Zrotation Xrotation Yrotation
                JOINT lThumb2
                {
                  OFFSET 3.37035 -0.52449 3.41376
                  CHANNELS 3 Zrotation Xrotation Yrotation
                  End Site
                  {
                    OFFSET 1.78271 -1.18214 1.43049
                  }
                }
              }
              JOINT lIndex1
              {
                OFFSET 7.75947 0.938293 5.60832
                CHANNELS 3 Zrotation Xrotation Yrotation
                JOINT lIndex2
                {
                  OFFSET 2.54057 -0.884171 1.56538
                  CHANNELS 3 Zrotation Xrotation Yrotation
                  End Site
                  {
                    OFFSET 1.62519 -0.234802 1.16502
                  }
                }
              }
              JOINT lMid1
              {
                OFFSET 8.24714 1.18213 3.41376
                CHANNELS 3 Zrotation Xrotation Yrotation
                JOINT lMid2
                {
                  OFFSET 3.10165 -0.590103 1.0647
                  CHANNELS 3 Zrotation Xrotation Yrotation
                  End Site
                  {
                    OFFSET 2.48547 -0.328903 0.83742
                  }
                }
              }
              JOINT lRing1
              {
                OFFSET 8.82822 0.546677 1.51678
                CHANNELS 3 Zrotation Xrotation Yrotation
                JOINT lRing2
                {
                  OFFSET 2.60934 -0.819778 -0.0198488
                  CHANNELS 3 Zrotation Xrotation Yrotation
                  End Site
                  {
                    OFFSET 2.33842 -0.294052 0.168128
                  }
                }
              }
              JOINT lPinky1
              {
                OFFSET 8.27202 -0.0477905 -0.4584
                CHANNELS 3 Zrotation Xrotation Yrotation
                JOINT lPinky2
                {
                  OFFSET 1.82734 -0.647385 -0.700984
                  CHANNELS 3 Zrotation Xrotation Yrotation
                  End Site
                  {
                    OFFSET 1.69225 -0.51767 -0.607171
                  }
                }
              }
            }
          }
        }
      }
    }
  }
  JOINT rButtock
  {
    OFFSET -8.77824 4.35084 1.2192
    CHANNELS 3 Zrotation Xrotation Yrotation
    JOINT rThigh
    {
      OFFSET 0 -1.70687 -2.19456
      CHANNELS 3 Zrotation Xrotation Yrotation
      JOINT rShin
      {
        OFFSET 0 -36.8199 0.73152
        CHANNELS 3 Zrotation Xrotation Yrotation
        JOINT rFoot
        {
          OFFSET 0.73152 -45.1104 -5.12064
          CHANNELS 3 Zrotation Xrotation Yrotation
          End Site
          {
            OFFSET -1.1221 -3.69964 12.103
          }
        }
      }
    }
  }
  JOINT lButtock
  {
    OFFSET 8.77824 4.35084 1.2192
    CHANNELS 3 Zrotation Xrotation Yrotation
    JOINT lThigh
    {
      OFFSET 0 -1.70687 -2.19456
      CHANNELS 3 Zrotation Xrotation Yrotation
      JOINT lShin
      {
        OFFSET 0 -36.8199 0.73152
        CHANNELS 3 Zrotation Xrotation Yrotation
        JOINT lFoot
        {
          OFFSET -0.73152 -45.1104 -5.12064
          CHANNELS 3 Zrotation Xrotation Yrotation
          End Site
          {
            OFFSET 1.1221 -3.69964 12.103
          }
        }
      }
    }
  }
}
MOTION
Frames:	4
Frame Time:	0.00833333
49.8702 85.5068 -174.199 0.0 0.0 0.0 2.23593 -0.000458248 0.0604463 0.615846 0.00897711 0.106599 -1.01746e-14 7.95139e-16 -7.70291e-16 -3.06719e-14 3.18055e-15 -2.21459e-15 -0.0 0.0 0.0 -0.0 0.0 0.0 -5.22047e-15 -1.52195e-16 -1.98785e-16 -1.04565e-13 -3.23025e-15 -7.15625e-15 -1.83518e-12 4.29176e-13 -1.36764e-13 -2.0714e-11 -1.13476e-12 -1.54575e-12 -4.88958e-11 -1.53224e-12 -3.62265e-12 -8.44417e-11 -2.64304e-12 -6.24899e-12 -4.88927e-11 -1.53303e-12 -3.63219e-12 7.73091 5.47488 0.417314 -4.88981e-11 -1.53303e-12 -3.61947e-12 2.90554 0.965183 0.102902 -4.88947e-11 -1.53273e-12 -3.61629e-12 10.2786 0.731801 0.0259123 -4.89028e-11 -1.53064e-12 -3.60357e-12 2.22167 -0.733487 -0.20892 -5.41485e-15 -1.53359e-16 -4.96962e-16 -1.07406e-13 -3.42904e-15 -8.94531e-15 -1.79249e-12 -6.64736e-13 -1.24042e-13 -2.07376e-11 -4.94228e-14 -1.52985e-12 -4.88555e-11 -1.54789e-12 -3.59721e-12 -8.43586e-11 -2.67167e-12 -6.22514e-12 -4.88585e-11 -1.54933e-12 -3.59085e-12 -7.73091 5.47488 -0.417314 -4.88525e-11 -1.54873e-12 -3.60993e-12 -2.90554 0.965183 -0.102902 -4.8856e-11 -1.54813e-12 -3.60436e-12 -10.2786 0.731801 -0.0259123 -4.88458e-11 -1.54336e-12 -3.61629e-12 -2.22167 -0.733487 0.20892 -2.03217e-16 0.0 -3.88251e-19 2.21197 -7.80167 -0.224267 0.00521918 8.55963 0.135859 -0.549061 -0.766563 0.0462611 2.03217e-16 0.0 3.88251e-19 1.18436 -1.92859 -0.00254834 0.00908798 -2.07858 0.0749542 0.5133 3.99847 -0.140505
44.936 84.9415 -180.776 -50.5833 -89.4515 55.845 2.74552 -2.79578 0.245659 -0.364028 0.244069 0.156334 0.0644256 3.063 -0.0735394 1.3768 -6.56811 0.118535 -0.0 0.0 0.0 -0.0 0.0 0.0 1.97212e-15 5.58086e-13 3.24306e-15 2.81022 -7.73691 -1.66116 -2.93792 -1.15298 4.76745 0.0615886 5.50996 0.761502 -2.86061e-10 -2.96409e-09 -2.16145e-10 -4.97218e-10 -5.11678e-09 -3.68675e-10 -2.86059e-10 -2.96409e-09 -2.16157e-10 7.73091 5.47488 0.417314 -2.86064e-10 -2.96409e-09 -2.16145e-10 2.90554 0.965183 0.102902 -2.86058e-10 -2.96409e-09 -2.16143e-10 10.2786 0.731801 0.0259123 -2.86067e-10 -2.96409e-09 -2.16134e-10 2.22167 -0.733487 -0.20892 1.83831e-15 5.58084e-13 2.96973e-15 1.19703 -2.50198 -0.684755 2.97029 -1.17043 -4.81576 -0.00622413 -1.75013 0.245551 1.52823e-10 4.61366e-10 -3.14407e-10 2.66671e-10 7.91824e-10 -5.44322e-10 1.52821e-10 4.61366e-10 -3.14402e-10 -7.73091 5.47488 -0.417314 1.52826e-10 4.61366e-10 -3.14417e-10 -2.90554 0.965183 -0.102902 1.52821e-10 4.61367e-10 -3.14413e-10 -10.2786 0.731801 -0.0259123 1.52832e-10 4.61371e-10 -3.14425e-10 -2.22167 -0.733487 0.20892 -2.03217e-16 0.0 -3.88251e-19 0.658191 -5.62345 4.33784 0.00465786 7.81641 0.0827811 -1.19362 -6.96301 -8.04837 2.03217e-16 0.0 3.88251e-19 5.00585 0.032983 -2.71488 0.00167507 -2.51098 0.00591584 0.764595 -4.19534 2.40321
44.9435 84.9449 -180.852 -68.3294 -89.2048 73.6294 3.30826 -5.74639 0.438524 -1.42388 0.486979 0.207697 0.149532 6.3024 -0.150082 2.8664 -13.5113 0.252765 -0.0 0.0 0.0 -0.0 0.0 0.0 1.02749e-14 1.20849e-12 6.94193e-15 5.29517 -15.8946 -3.51572 -5.83472 -2.34458 9.81162 -0.0354731 11.3384 1.59125 -5.49601e-10 -6.25684e-09 -4.53575e-10 -9.55921e-10 -1.08011e-08 -7.73609e-10 -5.496e-10 -6.25683e-09 -4.5359e-10 7.73091 5.47488 0.417314 -5.49604e-10 -6.25683e-09 -4.53579e-10 2.90554 0.965183 0.102902 -5.49595e-10 -6.25683e-09 -4.53578e-10 10.2786 0.731801 0.0259123 -5.49605e-10 -6.25683e-09 -4.53572e-10 2.22167 -0.733487 -0.20892 1.02068e-14 1.20849e-12 6.69345e-15 2.41915 -5.13551 -1.40727 5.89834 -2.38084 -9.915 0.0035365 -3.60014 0.505891 3.76446e-10 9.79132e-10 -6.61717e-10 6.559e-10 1.68052e-09 -1.14561e-09 3.76445e-10 9.79132e-10 -6.61714e-10 -7.73091 5.47488 -0.417314 3.76448e-10 9.79133e-10 -6.61724e-10 -2.90554 0.965183 -0.102902 3.76443e-10 9.79133e-10 -6.61723e-10 -10.2786 0.731801 -0.0259123 3.76453e-10 9.79136e-10 -6.61734e-10 -2.22167 -0.733487 0.20892 -2.03217e-16 0.0 -3.88251e-19 -1.36456 -3.31083 9.12764 0.00258501 7.03214 0.0270588 -3.78238 -13.045 -16.9217 2.03217e-16 0.0 3.88251e-19 9.24377 2.0974 -5.58763 -0.00728365 -2.96738 -0.0671886 1.83678 -12.8123 5.20819
44.9497 84.9423 -180.853 -69.4145 -89.2164 74.7393 3.81945 -8.386 0.621856 -2.325 0.714248 0.25582 0.217126 9.18894 -0.223167 4.21625 -19.704 0.375242 -0.0 0.0 0.0 -0.0 0.0 0.0 1.63573e-14 1.67456e-12 1.01268e-14 6.98679 -23.1292 -5.37093 -8.24394 -3.36327 14.3246 -0.270584 16.5179 2.37189 -7.60392e-10 -8.88922e-09 -6.41189e-10 -1.32277e-09 -1.5345e-08 -1.09353e-09 -7.60392e-10 -8.8892e-09 -6.41207e-10 7.73091 5.47488 0.417314 -7.60395e-10 -8.88921e-09 -6.41197e-10 2.90554 0.965183 0.102902 -7.60383e-10 -8.8892e-09 -6.41196e-10 10.2786 0.731801 0.0259123 -7.60394e-10 -8.8892e-09 -6.41194e-10 2.22167 -0.733487 -0.20892 1.63447e-14 1.67456e-12 9.90313e-15 3.41041 -7.50162 -2.07003 8.32667 -3.41221 -14.4705 0.0264907 -5.25001 0.739411 5.5618e-10 1.38719e-09 -9.36026e-10 9.68732e-10 2.38082e-09 -1.62051e-09 5.56181e-10 1.3872e-09 -9.36024e-10 -7.73091 5.47488 -0.417314 5.56182e-10 1.3872e-09 -9.3603e-10 -2.90554 0.965183 -0.102902 5.56176e-10 1.3872e-09 -9.36031e-10 -10.2786 0.731801 -0.0259123 5.56187e-10 1.3872e-09 -9.36042e-10 -2.22167 -0.733487 0.20892 -2.03217e-16 0.0 -3.88251e-19 -3.48316 -1.27927 13.3986 -0.000619256 6.32996 -0.0227949 -7.77762 -17.8024 -25.3514 2.03217e-16 0.0 3.88251e-19 13.205 3.91632 -8.15873 -0.016282 -3.37576 -0.132309 3.556 -20.4114 7.97426
